<mxfile host="app.diagrams.net" agent="Mozilla/5.0 (X11; Linux x86_64) AppleWebKit/537.36 (KHTML, like Gecko) Chrome/139.0.0.0 Safari/537.36" version="28.1.2">
  <diagram name="Page-1" id="I_-0sn3O2kb6tj1Pboet">
    <mxGraphModel dx="805" dy="3364" grid="1" gridSize="10" guides="1" tooltips="1" connect="1" arrows="1" fold="1" page="1" pageScale="1" pageWidth="850" pageHeight="1100" math="0" shadow="0">
      <root>
        <mxCell id="0" />
        <mxCell id="1" parent="0" />
        <mxCell id="zaqQpAq-awLff-FcH0R2-5" value="User" style="rounded=0;whiteSpace=wrap;html=1;fillColor=#fa6800;fontColor=#000000;strokeColor=#C73500;" parent="1" vertex="1">
          <mxGeometry x="200" y="450" width="120" height="60" as="geometry" />
        </mxCell>
        <mxCell id="zaqQpAq-awLff-FcH0R2-6" value="OrderId" style="rounded=0;whiteSpace=wrap;html=1;fillColor=#60a917;fontColor=#ffffff;strokeColor=#2D7600;" parent="1" vertex="1">
          <mxGeometry x="200" y="520" width="120" height="60" as="geometry" />
        </mxCell>
        <mxCell id="zaqQpAq-awLff-FcH0R2-7" value="Product" style="rounded=0;whiteSpace=wrap;html=1;fillColor=#fa6800;fontColor=#000000;strokeColor=#C73500;" parent="1" vertex="1">
          <mxGeometry x="365" y="450" width="120" height="60" as="geometry" />
        </mxCell>
        <mxCell id="zaqQpAq-awLff-FcH0R2-8" value="Order" style="rounded=0;whiteSpace=wrap;html=1;fillColor=#fa6800;fontColor=#000000;strokeColor=#C73500;" parent="1" vertex="1">
          <mxGeometry x="560" y="450" width="120" height="60" as="geometry" />
        </mxCell>
        <mxCell id="zaqQpAq-awLff-FcH0R2-9" value="&lt;span style=&quot;color: rgb(255, 255, 255);&quot;&gt;OrderItemId&lt;/span&gt;" style="rounded=0;whiteSpace=wrap;html=1;fillColor=#60a917;fontColor=#ffffff;strokeColor=#2D7600;" parent="1" vertex="1">
          <mxGeometry x="560" y="520" width="120" height="60" as="geometry" />
        </mxCell>
        <mxCell id="iydRvXEDxYKByqzJvTJy-1" value="User" style="rounded=0;whiteSpace=wrap;html=1;" vertex="1" parent="1">
          <mxGeometry x="300" y="-310" width="120" height="60" as="geometry" />
        </mxCell>
        <mxCell id="iydRvXEDxYKByqzJvTJy-2" value="Product" style="rounded=0;whiteSpace=wrap;html=1;" vertex="1" parent="1">
          <mxGeometry x="190" y="-520" width="120" height="60" as="geometry" />
        </mxCell>
        <mxCell id="iydRvXEDxYKByqzJvTJy-3" value="Order" style="rounded=0;whiteSpace=wrap;html=1;" vertex="1" parent="1">
          <mxGeometry x="450" y="-520" width="120" height="60" as="geometry" />
        </mxCell>
        <mxCell id="iydRvXEDxYKByqzJvTJy-4" value="OrderItem" style="rounded=0;whiteSpace=wrap;html=1;" vertex="1" parent="1">
          <mxGeometry x="320" y="-680" width="120" height="60" as="geometry" />
        </mxCell>
        <mxCell id="iydRvXEDxYKByqzJvTJy-5" value="1:N" style="endArrow=classic;html=1;rounded=0;exitX=0.25;exitY=0;exitDx=0;exitDy=0;entryX=0.5;entryY=1;entryDx=0;entryDy=0;" edge="1" parent="1" source="iydRvXEDxYKByqzJvTJy-1" target="iydRvXEDxYKByqzJvTJy-2">
          <mxGeometry width="50" height="50" relative="1" as="geometry">
            <mxPoint x="220" y="-320" as="sourcePoint" />
            <mxPoint x="270" y="-370" as="targetPoint" />
          </mxGeometry>
        </mxCell>
        <mxCell id="iydRvXEDxYKByqzJvTJy-6" value="1:N" style="endArrow=classic;html=1;rounded=0;exitX=0.75;exitY=0;exitDx=0;exitDy=0;entryX=0.5;entryY=1;entryDx=0;entryDy=0;" edge="1" parent="1" source="iydRvXEDxYKByqzJvTJy-1" target="iydRvXEDxYKByqzJvTJy-3">
          <mxGeometry width="50" height="50" relative="1" as="geometry">
            <mxPoint x="450" y="-340" as="sourcePoint" />
            <mxPoint x="500" y="-390" as="targetPoint" />
          </mxGeometry>
        </mxCell>
        <mxCell id="iydRvXEDxYKByqzJvTJy-7" value="1:N" style="endArrow=classic;html=1;rounded=0;exitX=0.5;exitY=0;exitDx=0;exitDy=0;entryX=0.5;entryY=1;entryDx=0;entryDy=0;" edge="1" parent="1" source="iydRvXEDxYKByqzJvTJy-3" target="iydRvXEDxYKByqzJvTJy-4">
          <mxGeometry width="50" height="50" relative="1" as="geometry">
            <mxPoint x="580" y="-580" as="sourcePoint" />
            <mxPoint x="630" y="-630" as="targetPoint" />
          </mxGeometry>
        </mxCell>
        <mxCell id="iydRvXEDxYKByqzJvTJy-8" value="1:1" style="endArrow=classic;html=1;rounded=0;entryX=0.5;entryY=0;entryDx=0;entryDy=0;" edge="1" parent="1" target="iydRvXEDxYKByqzJvTJy-2">
          <mxGeometry width="50" height="50" relative="1" as="geometry">
            <mxPoint x="380" y="-620" as="sourcePoint" />
            <mxPoint x="230" y="-590" as="targetPoint" />
          </mxGeometry>
        </mxCell>
        <mxCell id="iydRvXEDxYKByqzJvTJy-9" value="UserId" style="rounded=0;whiteSpace=wrap;html=1;fillColor=#60a917;fontColor=#ffffff;strokeColor=#2D7600;" vertex="1" parent="1">
          <mxGeometry x="690" y="520" width="120" height="60" as="geometry" />
        </mxCell>
        <mxCell id="iydRvXEDxYKByqzJvTJy-10" value="UserId" style="rounded=0;whiteSpace=wrap;html=1;fillColor=#60a917;fontColor=#ffffff;strokeColor=#2D7600;" vertex="1" parent="1">
          <mxGeometry x="365" y="520" width="120" height="60" as="geometry" />
        </mxCell>
        <mxCell id="iydRvXEDxYKByqzJvTJy-11" value="OrderItem" style="rounded=0;whiteSpace=wrap;html=1;fillColor=#fa6800;fontColor=#000000;strokeColor=#C73500;" vertex="1" parent="1">
          <mxGeometry x="200" y="640" width="120" height="60" as="geometry" />
        </mxCell>
        <mxCell id="iydRvXEDxYKByqzJvTJy-12" value="OrderId" style="rounded=0;whiteSpace=wrap;html=1;fillColor=#60a917;fontColor=#ffffff;strokeColor=#2D7600;" vertex="1" parent="1">
          <mxGeometry x="200" y="720" width="120" height="60" as="geometry" />
        </mxCell>
        <mxCell id="iydRvXEDxYKByqzJvTJy-13" value="ProductId" style="rounded=0;whiteSpace=wrap;html=1;fillColor=#60a917;fontColor=#ffffff;strokeColor=#2D7600;" vertex="1" parent="1">
          <mxGeometry x="330" y="720" width="120" height="60" as="geometry" />
        </mxCell>
      </root>
    </mxGraphModel>
  </diagram>
</mxfile>
